<?xml version="1.0" encoding="UTF-8"?>
<svg id="Layer_1" xmlns="http://www.w3.org/2000/svg" viewBox="0 0 251.09 43.14">
  <defs>
    <style>
      .cls-1 {
        fill-rule: evenodd;
      }

      .cls-1, .cls-2, .cls-3 {
        fill: #fff;
      }

      .cls-4 {
        isolation: isolate;
      }

      .cls-3 {
        stroke: #fff;
        stroke-linecap: round;
        stroke-miterlimit: 10;
        stroke-width: 1.19px;
      }
    </style>
  </defs>
  <g id="Group_1">
    <path id="Path_15" class="cls-1" d="M118.52,35.13l4.21,7.3h-2.12l-4.18-7.24h-4.03v7.24h-1.83v-17.32h7.15c2.78,0,5.04,2.26,5.03,5.05,0,2.48-1.8,4.58-4.25,4.97h0ZM112.42,34.01v-7.32h5.32c1.91,0,3.47,1.55,3.47,3.47s-1.55,3.47-3.47,3.47h0l-3.95.04-1.37,1.53v-1.18h0Z"/>
    <path id="Path_16" class="cls-1" d="M61.53,42.43h12.58v-1.63h-9.7l9.65-15.41v-.28h-11.16l-1.46,1.63h9.76l-9.68,15.41v.28h0Z"/>
    <path id="Path_17" class="cls-1" d="M144.42,36.06l2.66,6.46h-1.86l-2.61-6.46h-.05l-2.92-7.24c-.18.66-.39,1.31-.63,1.96l-4.76,11.74h-1.99l6.57-15.72-.72-1.78h1.77l4.55,11.04h0Z"/>
    <path id="Path_18" class="cls-1" d="M92.35,40.97c-3.98,0-7.21-3.23-7.21-7.21s3.23-7.21,7.21-7.21,7.21,3.23,7.21,7.21-3.23,7.21-7.21,7.21h0ZM101.21,33.77c0-4.9-3.97-8.86-8.86-8.86s-8.86,3.97-8.86,8.86,3.97,8.86,8.86,8.86,8.86-3.97,8.86-8.86h0Z"/>
    <path id="Path_19" class="cls-1" d="M66.77,18.1h1.83V2.41h5.32V.78h-11.02l-1.46,1.63h5.32v15.69Z"/>
    <path id="Path_20" class="cls-1" d="M105.49,18.1h10.9v-1.63h-9.07v-7.59l1.44-1.6h6.33v1.6h-7.77V2.41h8.71V.78h-10.54v17.32Z"/>
    <path id="Path_21" class="cls-1" d="M83.23,18.1h1.83v-9.22h9.27v9.22h1.83V.78h-1.83v6.5h-7.83l-1.44,1.6V.78h-1.83v17.32Z"/>
    <path id="Path_22" class="cls-2" d="M39.03,32.57l3.99,6.91h-17.18l8.58-14.86v-.02s1.74-2.98,1.74-2.98v-.03S48.23.69,48.23.69H0l5.55,9.65h3.47l-3.82-6.6h17.1l-8.66,14.87h0l-1.67,3.02L0,42.53h48.23l-5.73-9.95h-3.47ZM22.39,39.48H5.21L24.11,6.74l7.81,13.53,1.23-3.88-7.3-12.66h17.17l-4.78,8.28h0s-3.82,6.62-3.82,6.62h0l-4.39,7.58-5.92,10.25-7.78-13.46-1.27,3.82,7.32,12.67h0Z"/>
    <line id="Line_1" class="cls-3" x1="160.12" y1=".6" x2="160.12" y2="42.55"/>
    <g id="Group">
      <g id="DELHI_" class="cls-4">
        <g class="cls-4">
          <path class="cls-2" d="M180.25,4.87c0,3.2-2.31,4.55-4.65,4.55h-2.72V.32h2.85c2.6,0,4.52,1.22,4.52,4.55ZM178.38,4.87c0-1.86-.79-2.78-2.72-2.78h-.96v5.56h.9c1.91,0,2.78-1.12,2.78-2.78Z"/>
          <path class="cls-2" d="M188.59,9.42h-6.51V.32h6.32v1.78h-4.5v1.57h2.61v1.77h-2.61v2.2h4.69v1.78Z"/>
          <path class="cls-2" d="M196.91,9.42h-6.38V.32h1.82v7.31h4.56v1.79Z"/>
          <path class="cls-2" d="M205.95,9.42h-1.82v-3.82h-3.73v3.82h-1.82V.32h1.82v3.48h3.73V.32h1.82v9.1Z"/>
          <path class="cls-2" d="M210.24,9.42h-1.82V.32h1.82v9.1Z"/>
        </g>
      </g>
      <g id="CONVENTION_" class="cls-4">
        <g class="cls-4">
          <path class="cls-2" d="M179.17,23.99c-.66.9-1.65,1.51-2.98,1.51-2.22,0-3.68-2.01-3.68-4.68s1.52-4.71,3.72-4.71c1.25,0,2.18.47,2.9,1.46l-.81.61c-.58-.79-1.13-1.14-2.12-1.14-1.56,0-2.68,1.55-2.68,3.76s1.16,3.78,2.69,3.78c.99,0,1.66-.44,2.25-1.2l.7.61Z"/>
          <path class="cls-2" d="M187.99,20.8c0,2.74-1.53,4.71-3.8,4.71s-3.76-1.94-3.76-4.68,1.52-4.71,3.78-4.71,3.77,1.94,3.77,4.68ZM186.97,20.82c0-2.29-1.21-3.78-2.79-3.78s-2.73,1.47-2.73,3.76,1.2,3.78,2.78,3.78,2.74-1.47,2.74-3.76Z"/>
          <path class="cls-2" d="M189.99,25.36v-9.1h.99l3.94,6.35c.2.31.53.91.65,1.14v-7.49h.97v9.1h-.95l-3.98-6.23c-.2-.31-.53-.91-.65-1.14v7.37h-.98Z"/>
          <path class="cls-2" d="M205.73,16.26l-3.09,9.1h-1.12l-3.09-9.1h1.07l2.03,6.23c.18.55.47,1.47.56,1.79.09-.33.4-1.29.57-1.82l2.04-6.2h1.04Z"/>
          <path class="cls-2" d="M213.31,25.36h-5.69v-9.1h5.5v.92h-4.49v2.86h2.6v.92h-2.6v3.47h4.68v.92Z"/>
          <path class="cls-2" d="M215.25,25.36v-9.1h.99l3.94,6.35c.2.31.53.91.65,1.14v-7.49h.97v9.1h-.95l-3.98-6.23c-.2-.31-.53-.91-.65-1.14v7.37h-.98Z"/>
          <path class="cls-2" d="M230,17.18h-2.68v8.18h-1.01v-8.18h-2.68v-.92h6.37v.92Z"/>
          <path class="cls-2" d="M232.91,25.36h-1.01v-9.1h1.01v9.1Z"/>
          <path class="cls-2" d="M242.54,20.8c0,2.74-1.53,4.71-3.8,4.71s-3.76-1.94-3.76-4.68,1.52-4.71,3.78-4.71,3.77,1.94,3.77,4.68ZM241.52,20.82c0-2.29-1.21-3.78-2.79-3.78s-2.73,1.47-2.73,3.76,1.2,3.78,2.78,3.78,2.74-1.47,2.74-3.76Z"/>
          <path class="cls-2" d="M244.54,25.36v-9.1h.99l3.94,6.35c.2.31.53.91.65,1.14v-7.49h.97v9.1h-.95l-3.98-6.23c-.2-.31-.53-.91-.65-1.14v7.37h-.97Z"/>
        </g>
      </g>
      <g id="CENTER" class="cls-4">
        <g class="cls-4">
          <path class="cls-2" d="M179.17,39.93c-.66.9-1.65,1.51-2.98,1.51-2.22,0-3.68-2.01-3.68-4.68s1.52-4.71,3.72-4.71c1.25,0,2.18.47,2.9,1.46l-.81.61c-.58-.79-1.13-1.14-2.12-1.14-1.56,0-2.68,1.55-2.68,3.76s1.16,3.78,2.69,3.78c.99,0,1.66-.44,2.25-1.2l.7.61Z"/>
          <path class="cls-2" d="M186.77,41.29h-5.69v-9.1h5.5v.92h-4.49v2.86h2.6v.92h-2.6v3.47h4.68v.92Z"/>
          <path class="cls-2" d="M188.7,41.29v-9.1h.99l3.94,6.34c.2.31.53.91.65,1.14v-7.49h.97v9.1h-.95l-3.98-6.23c-.2-.31-.53-.91-.65-1.14v7.37h-.97Z"/>
          <path class="cls-2" d="M203.46,33.12h-2.68v8.18h-1.01v-8.18h-2.68v-.92h6.37v.92Z"/>
          <path class="cls-2" d="M210.99,41.29h-5.69v-9.1h5.5v.92h-4.49v2.86h2.6v.92h-2.6v3.47h4.68v.92Z"/>
          <path class="cls-2" d="M219.36,34.77c0,1.42-.85,2.3-2.15,2.57l2,3.95h-1.17l-1.95-3.87h-2.16v3.87h-1.01v-9.1h3.6c1.6,0,2.83.82,2.83,2.57ZM218.34,34.81c0-1.12-.65-1.69-1.86-1.69h-2.55v3.39h2.42c1.35,0,1.99-.56,1.99-1.7Z"/>
        </g>
      </g>
    </g>
  </g>
</svg>